<?xml version="1.0" encoding="utf-8"?>
<!-- Generator: Adobe Illustrator 16.0.0, SVG Export Plug-In . SVG Version: 6.00 Build 0)  -->
<!DOCTYPE svg PUBLIC "-//W3C//DTD SVG 1.1//EN" "http://www.w3.org/Graphics/SVG/1.1/DTD/svg11.dtd">
<svg version="1.1" xmlns="http://www.w3.org/2000/svg" xmlns:xlink="http://www.w3.org/1999/xlink" x="0px" y="0px" width="697px"
	 height="168.506px" viewBox="-106.734 0 697 168.506" enable-background="new -106.734 0 697 168.506" xml:space="preserve">
<g id="Layer_1">
	<g>
		<path fill="#EFE9F4" d="M176.046,101.487c0,1.742-2.379,3.171-5.292,3.171H-87.437c-2.913,0-5.297-1.429-5.297-3.171v-86.56
			c0-1.744,2.384-3.17,5.297-3.17h258.191c2.913,0,5.292,1.426,5.292,3.17V101.487z"/>
		<path fill="#F2EFDF" d="M524.453,101.487c0,1.746-2.458,3.172-5.45,3.172H261.118c-2.996,0-5.446-1.426-5.446-3.172V14.924
			c0-1.742,2.45-3.168,5.446-3.168h257.885c2.992,0,5.45,1.426,5.45,3.168V101.487z"/>
		<polygon fill="#C4C4C0" points="324.756,130.881 254.893,130.881 176.143,130.881 172.018,130.881 110.451,130.881 
			110.451,123.229 172.018,123.229 176.049,123.229 254.986,123.229 324.756,123.229 		"/>
		
			<line fill="none" stroke="#C4C4C0" stroke-width="2.7" stroke-miterlimit="10" x1="115.073" y1="109.765" x2="115.073" y2="127.056"/>
		
			<line fill="none" stroke="#C4C4C0" stroke-width="2.7" stroke-miterlimit="10" x1="119.348" y1="109.765" x2="119.348" y2="127.056"/>
		
			<line fill="none" stroke="#C4C4C0" stroke-width="2.7" stroke-miterlimit="10" x1="123.622" y1="109.765" x2="123.622" y2="127.056"/>
		
			<line fill="none" stroke="#C4C4C0" stroke-width="2.7" stroke-miterlimit="10" x1="128.117" y1="109.765" x2="128.117" y2="127.056"/>
		
			<line fill="none" stroke="#C4C4C0" stroke-width="2.7" stroke-miterlimit="10" x1="132.396" y1="109.765" x2="132.396" y2="127.056"/>
		
			<line fill="none" stroke="#C4C4C0" stroke-width="2.7" stroke-miterlimit="10" x1="136.67" y1="109.765" x2="136.67" y2="127.056"/>
		
			<line fill="none" stroke="#C4C4C0" stroke-width="2.7" stroke-miterlimit="10" x1="140.721" y1="109.765" x2="140.721" y2="127.056"/>
		<line fill="none" stroke="#C4C4C0" stroke-width="2.7" stroke-miterlimit="10" x1="145" y1="109.765" x2="145" y2="127.056"/>
		
			<line fill="none" stroke="#C4C4C0" stroke-width="2.7" stroke-miterlimit="10" x1="149.273" y1="109.765" x2="149.273" y2="127.056"/>
		
			<line fill="none" stroke="#C4C4C0" stroke-width="2.7" stroke-miterlimit="10" x1="153.769" y1="109.765" x2="153.769" y2="127.056"/>
		
			<line fill="none" stroke="#C4C4C0" stroke-width="2.7" stroke-miterlimit="10" x1="158.045" y1="109.765" x2="158.045" y2="127.056"/>
		
			<line fill="none" stroke="#C4C4C0" stroke-width="2.7" stroke-miterlimit="10" x1="162.32" y1="109.765" x2="162.32" y2="127.056"/>
		
			<line fill="none" stroke="#C4C4C0" stroke-width="2.7" stroke-miterlimit="10" x1="166.375" y1="109.765" x2="166.375" y2="127.056"/>
		
			<line fill="none" stroke="#C4C4C0" stroke-width="2.7" stroke-miterlimit="10" x1="170.652" y1="109.765" x2="170.652" y2="127.056"/>
		
			<line fill="none" stroke="#C4C4C0" stroke-width="2.7" stroke-miterlimit="10" x1="174.927" y1="109.765" x2="174.927" y2="127.056"/>
		
			<line fill="none" stroke="#8FC2A8" stroke-width="2.25" stroke-miterlimit="10" x1="179.421" y1="109.765" x2="179.421" y2="127.056"/>
		
			<line fill="none" stroke="#8FC2A8" stroke-width="2.25" stroke-miterlimit="10" x1="183.698" y1="109.765" x2="183.698" y2="127.056"/>
		
			<line fill="none" stroke="#8FC2A8" stroke-width="2.25" stroke-miterlimit="10" x1="187.971" y1="109.765" x2="187.971" y2="127.056"/>
		
			<line fill="none" stroke="#8FC2A8" stroke-width="2.25" stroke-miterlimit="10" x1="192.024" y1="109.765" x2="192.024" y2="127.056"/>
		
			<line fill="none" stroke="#8FC2A8" stroke-width="2.25" stroke-miterlimit="10" x1="196.302" y1="109.765" x2="196.302" y2="127.056"/>
		
			<line fill="none" stroke="#8FC2A8" stroke-width="2.25" stroke-miterlimit="10" x1="200.574" y1="109.765" x2="200.574" y2="127.056"/>
		
			<line fill="none" stroke="#8FC2A8" stroke-width="2.25" stroke-miterlimit="10" x1="205.07" y1="109.765" x2="205.07" y2="127.056"/>
		
			<line fill="none" stroke="#8FC2A8" stroke-width="2.25" stroke-miterlimit="10" x1="209.348" y1="109.765" x2="209.348" y2="127.056"/>
		
			<line fill="none" stroke="#8FC2A8" stroke-width="2.25" stroke-miterlimit="10" x1="213.622" y1="109.765" x2="213.622" y2="127.056"/>
		
			<line fill="none" stroke="#8FC2A8" stroke-width="2.25" stroke-miterlimit="10" x1="217.604" y1="109.765" x2="217.604" y2="127.056"/>
		
			<line fill="none" stroke="#8FC2A8" stroke-width="2.25" stroke-miterlimit="10" x1="221.879" y1="109.765" x2="221.879" y2="127.056"/>
		
			<line fill="none" stroke="#8FC2A8" stroke-width="2.25" stroke-miterlimit="10" x1="226.155" y1="109.765" x2="226.155" y2="127.056"/>
		
			<line fill="none" stroke="#8FC2A8" stroke-width="2.25" stroke-miterlimit="10" x1="230.65" y1="109.765" x2="230.65" y2="127.056"/>
		
			<line fill="none" stroke="#8FC2A8" stroke-width="2.25" stroke-miterlimit="10" x1="234.926" y1="109.765" x2="234.926" y2="127.056"/>
		
			<line fill="none" stroke="#8FC2A8" stroke-width="2.25" stroke-miterlimit="10" x1="239.202" y1="109.765" x2="239.202" y2="127.056"/>
		
			<line fill="none" stroke="#8FC2A8" stroke-width="2.25" stroke-miterlimit="10" x1="243.254" y1="109.765" x2="243.254" y2="127.056"/>
		
			<line fill="none" stroke="#8FC2A8" stroke-width="2.25" stroke-miterlimit="10" x1="247.53" y1="109.765" x2="247.53" y2="127.056"/>
		
			<line fill="none" stroke="#8FC2A8" stroke-width="2.25" stroke-miterlimit="10" x1="251.805" y1="109.765" x2="251.805" y2="127.056"/>
		
			<line fill="none" stroke="#C4C4C0" stroke-width="2.7" stroke-miterlimit="10" x1="256.299" y1="109.765" x2="256.299" y2="127.056"/>
		
			<line fill="none" stroke="#C4C4C0" stroke-width="2.7" stroke-miterlimit="10" x1="260.579" y1="109.765" x2="260.579" y2="127.056"/>
		
			<line fill="none" stroke="#C4C4C0" stroke-width="2.7" stroke-miterlimit="10" x1="264.851" y1="109.765" x2="264.851" y2="127.056"/>
		
			<line fill="none" stroke="#C4C4C0" stroke-width="2.7" stroke-miterlimit="10" x1="268.905" y1="109.765" x2="268.905" y2="127.056"/>
		
			<line fill="none" stroke="#C4C4C0" stroke-width="2.7" stroke-miterlimit="10" x1="273.186" y1="109.765" x2="273.186" y2="127.056"/>
		
			<line fill="none" stroke="#C4C4C0" stroke-width="2.7" stroke-miterlimit="10" x1="277.458" y1="109.765" x2="277.458" y2="127.056"/>
		
			<line fill="none" stroke="#C4C4C0" stroke-width="2.7" stroke-miterlimit="10" x1="281.952" y1="109.765" x2="281.952" y2="127.056"/>
		
			<line fill="none" stroke="#C4C4C0" stroke-width="2.7" stroke-miterlimit="10" x1="286.232" y1="109.765" x2="286.232" y2="127.056"/>
		
			<line fill="none" stroke="#C4C4C0" stroke-width="2.7" stroke-miterlimit="10" x1="290.504" y1="109.765" x2="290.504" y2="127.056"/>
		
			<line fill="none" stroke="#C4C4C0" stroke-width="2.7" stroke-miterlimit="10" x1="294.555" y1="109.765" x2="294.555" y2="127.056"/>
		
			<line fill="none" stroke="#C4C4C0" stroke-width="2.7" stroke-miterlimit="10" x1="298.836" y1="109.765" x2="298.836" y2="127.056"/>
		
			<line fill="none" stroke="#C4C4C0" stroke-width="2.7" stroke-miterlimit="10" x1="303.108" y1="109.765" x2="303.108" y2="127.056"/>
		<line fill="none" stroke="#C4C4C0" stroke-width="2.7" stroke-miterlimit="10" x1="307.6" y1="109.765" x2="307.6" y2="127.056"/>
		
			<line fill="none" stroke="#C4C4C0" stroke-width="2.7" stroke-miterlimit="10" x1="311.881" y1="109.765" x2="311.881" y2="127.056"/>
		
			<line fill="none" stroke="#C4C4C0" stroke-width="2.7" stroke-miterlimit="10" x1="316.153" y1="109.765" x2="316.153" y2="127.056"/>
		
			<line fill="none" stroke="#C4C4C0" stroke-width="2.7" stroke-miterlimit="10" x1="320.477" y1="109.765" x2="320.477" y2="127.056"/>
		<rect x="176.611" y="88.146" fill="#F8B2BC" width="78.894" height="7.648"/>
		<line fill="none" x1="179.646" y1="91.358" x2="179.646" y2="108.649"/>
		
			<line fill="none" stroke="#F7B0BB" stroke-width="2.7" stroke-miterlimit="10" x1="179.646" y1="91.358" x2="179.646" y2="108.649"/>
		<line fill="none" x1="183.921" y1="91.358" x2="183.921" y2="108.649"/>
		
			<line fill="none" stroke="#F7B0BB" stroke-width="2.7" stroke-miterlimit="10" x1="183.921" y1="91.358" x2="183.921" y2="108.649"/>
		<line fill="none" x1="188.195" y1="91.358" x2="188.195" y2="108.649"/>
		
			<line fill="none" stroke="#F7B0BB" stroke-width="2.7" stroke-miterlimit="10" x1="188.195" y1="91.358" x2="188.195" y2="108.649"/>
		<line fill="none" x1="192.691" y1="91.358" x2="192.691" y2="108.649"/>
		
			<line fill="none" stroke="#F7B0BB" stroke-width="2.7" stroke-miterlimit="10" x1="192.691" y1="91.358" x2="192.691" y2="108.649"/>
		<line fill="none" x1="196.97" y1="91.358" x2="196.97" y2="108.649"/>
		
			<line fill="none" stroke="#F7B0BB" stroke-width="2.7" stroke-miterlimit="10" x1="196.97" y1="91.358" x2="196.97" y2="108.649"/>
		<line fill="none" x1="201.242" y1="91.358" x2="201.242" y2="108.649"/>
		
			<line fill="none" stroke="#F7B0BB" stroke-width="2.7" stroke-miterlimit="10" x1="201.242" y1="91.358" x2="201.242" y2="108.649"/>
		<line fill="none" x1="205.295" y1="91.358" x2="205.295" y2="108.649"/>
		
			<line fill="none" stroke="#F7B0BB" stroke-width="2.7" stroke-miterlimit="10" x1="205.295" y1="91.358" x2="205.295" y2="108.649"/>
		<line fill="none" x1="209.574" y1="91.358" x2="209.574" y2="108.649"/>
		
			<line fill="none" stroke="#F7B0BB" stroke-width="2.7" stroke-miterlimit="10" x1="209.574" y1="91.358" x2="209.574" y2="108.649"/>
		<line fill="none" x1="213.846" y1="91.358" x2="213.846" y2="108.649"/>
		
			<line fill="none" stroke="#F7B0BB" stroke-width="2.7" stroke-miterlimit="10" x1="213.846" y1="91.358" x2="213.846" y2="108.649"/>
		<line fill="none" x1="218.338" y1="91.358" x2="218.338" y2="108.649"/>
		
			<line fill="none" stroke="#F7B0BB" stroke-width="2.7" stroke-miterlimit="10" x1="218.338" y1="91.358" x2="218.338" y2="108.649"/>
		<line fill="none" x1="222.622" y1="91.358" x2="222.622" y2="108.649"/>
		
			<line fill="none" stroke="#F7B0BB" stroke-width="2.7" stroke-miterlimit="10" x1="222.622" y1="91.358" x2="222.622" y2="108.649"/>
		<line fill="none" x1="226.894" y1="91.358" x2="226.894" y2="108.649"/>
		
			<line fill="none" stroke="#F7B0BB" stroke-width="2.7" stroke-miterlimit="10" x1="226.894" y1="91.358" x2="226.894" y2="108.649"/>
		<line fill="none" x1="230.875" y1="91.362" x2="230.875" y2="108.656"/>
		
			<line fill="none" stroke="#F7B0BB" stroke-width="2.7" stroke-miterlimit="10" x1="230.875" y1="91.362" x2="230.875" y2="108.656"/>
		<line fill="none" x1="235.152" y1="91.362" x2="235.152" y2="108.656"/>
		
			<line fill="none" stroke="#F7B0BB" stroke-width="2.7" stroke-miterlimit="10" x1="235.152" y1="91.362" x2="235.152" y2="108.656"/>
		<line fill="none" x1="239.424" y1="91.362" x2="239.424" y2="108.656"/>
		
			<line fill="none" stroke="#F7B0BB" stroke-width="2.7" stroke-miterlimit="10" x1="239.424" y1="91.362" x2="239.424" y2="108.656"/>
		<line fill="none" x1="243.918" y1="91.362" x2="243.918" y2="108.656"/>
		
			<line fill="none" stroke="#F7B0BB" stroke-width="2.7" stroke-miterlimit="10" x1="243.918" y1="91.362" x2="243.918" y2="108.656"/>
		<line fill="none" x1="248.202" y1="91.362" x2="248.202" y2="108.656"/>
		
			<line fill="none" stroke="#F7B0BB" stroke-width="2.7" stroke-miterlimit="10" x1="248.202" y1="91.362" x2="248.202" y2="108.656"/>
		<line fill="none" x1="252.473" y1="91.362" x2="252.473" y2="108.656"/>
		
			<line fill="none" stroke="#F7B0BB" stroke-width="2.7" stroke-miterlimit="10" x1="252.473" y1="91.362" x2="252.473" y2="108.656"/>
	</g>
	<g>
		
			<line fill="none" stroke="#010101" stroke-width="1.386" stroke-miterlimit="10" x1="176.713" y1="139.457" x2="120.048" y2="139.457"/>
		<rect x="176.02" y="134.953" fill="#010101" width="1.386" height="9.01"/>
		<polygon fill="#010101" points="121.059,136.002 115.073,139.457 121.059,142.914 		"/>
	</g>
	<g>
		
			<line fill="none" stroke="#010101" stroke-width="1.386" stroke-miterlimit="10" x1="256.639" y1="139.457" x2="313.303" y2="139.457"/>
		<rect x="255.944" y="134.953" fill="#010101" width="1.387" height="9.01"/>
		<polygon fill="#010101" points="312.293,142.914 318.278,139.457 312.293,136.002 		"/>
	</g>
	<g>
		<rect x="176.049" y="123.229" fill="#8FC2A8" width="78.844" height="7.651"/>
	</g>
	<g>
		<path fill="#FCFDFA" d="M264.047,82.984c0,3.521-2.854,6.376-6.377,6.376c-3.521,0-6.375-2.854-6.375-6.376
			s2.854-6.375,6.375-6.375C261.193,76.609,264.047,79.463,264.047,82.984"/>
	</g>
	<g>
		<text transform="matrix(1 0 0 1 99.6934 130.877)" font-family="'Helvetica'" font-size="10">5’</text>
	</g>
	<g>
		<text transform="matrix(1 0 0 1 326.3774 130.877)" font-family="'Helvetica'" font-size="10">3’</text>
	</g>
	<text transform="matrix(1 0 0 1 160.2061 129.3398)" fill="#010101" font-family="'Helvetica'" font-size="8">T</text>
	<text transform="matrix(1 0 0 1 266.4478 129.3398)" fill="#010101" font-family="'Helvetica'" font-size="8">A</text>
	<text transform="matrix(1 0 0 1 105.25 157.4707)" fill="#010101" font-family="'Helvetica'" font-size="12">reverse reads</text>
	<text transform="matrix(1 0 0 1 256.4419 157.4707)" fill="#010101" font-family="'Helvetica'" font-size="12">forward reads</text>
	<text transform="matrix(1 0 0 1 -81.271 84.6104)" fill="#A792B6" font-family="'Helvetica'" font-size="12">reverse </text>
	<text transform="matrix(1 0 0 1 -81.271 97.1836)" fill="#A792B6" font-family="'Helvetica'" font-size="12">probe set</text>
	<text transform="matrix(1 0 0 1 474.7876 84.6104)" fill="#B8B093" font-family="'Helvetica'" font-size="12">forward</text>
	<text transform="matrix(1 0 0 1 466.0376 97.1836)" fill="#B8B093" font-family="'Helvetica'" font-size="12">probe set</text>
	<text transform="matrix(1 0 0 1 186.7051 70.5234)" fill="#F8B2BC" font-family="'Helvetica'" font-size="12">sequencing </text>
	<text transform="matrix(1 0 0 1 200.1201 83.0996)" fill="#F8B2BC" font-family="'Helvetica'" font-size="12">primer</text>
	<text transform="matrix(1 0 0 1 195.1963 143.0898)" fill="#8FC2A8" font-family="'Helvetica'" font-size="12">adapter</text>
	<text transform="matrix(1 0 0 1 255.2915 85.4766)" fill="#F8B2BC" font-family="'Helvetica'" font-size="10.4805">p</text>
</g>
<g id="FwdprobeA">
<animateMotion id="FwdprobeAanimate" path="M 0 0 V -15 Z" dur="0.3s" repeatCount="2" restart="always" begin="indefinite" />
	<polyline fill="#C4C4C0" points="272.685,32.174 312.581,32.174 312.581,39.824 272.685,39.824 	"/>
	<line fill="none" stroke="#C4C4C0" stroke-width="2.7" stroke-miterlimit="10" x1="275.418" y1="35.389" x2="275.418" y2="52.68"/>
	<line fill="none" stroke="#C4C4C0" stroke-width="2.7" stroke-miterlimit="10" x1="279.702" y1="35.389" x2="279.702" y2="52.68"/>
	<line fill="none" stroke="#C4C4C0" stroke-width="2.7" stroke-miterlimit="10" x1="283.973" y1="35.389" x2="283.973" y2="52.68"/>
	
		<line fill="none" stroke="#C4C4C0" stroke-width="2.7" stroke-miterlimit="10" x1="287.954" y1="35.395" x2="287.954" y2="52.686"/>
	
		<line fill="none" stroke="#C4C4C0" stroke-width="2.7" stroke-miterlimit="10" x1="292.231" y1="35.395" x2="292.231" y2="52.686"/>
	
		<line fill="none" stroke="#C4C4C0" stroke-width="2.7" stroke-miterlimit="10" x1="296.502" y1="35.395" x2="296.502" y2="52.686"/>
	
		<line fill="none" stroke="#C4C4C0" stroke-width="2.7" stroke-miterlimit="10" x1="300.997" y1="35.395" x2="300.997" y2="52.686"/>
	<line fill="none" stroke="#C4C4C0" stroke-width="2.7" stroke-miterlimit="10" x1="305.28" y1="35.395" x2="305.28" y2="52.686"/>
	
		<line fill="none" stroke="#C4C4C0" stroke-width="2.7" stroke-miterlimit="10" x1="309.551" y1="35.395" x2="309.551" y2="52.686"/>
	<polygon id="FwdprobeAstar" fill="#20B24B" points="312.583,20.102 317.313,17.617 316.411,22.881 320.237,26.613 314.948,27.383 
		312.583,32.174 310.217,27.383 304.928,26.613 308.754,22.881 307.852,17.617 	"/>
	<text id="FwdprobeAbase" transform="matrix(1 0 0 1 281.9458 38.4189)" fill="#010101" font-family="'Helvetica'" font-size="8">R</text>
</g>
<g id="FwdprobeB">
<animateMotion id="FwdprobeBanimate" path="M 0 0 V -15 Z" dur="0.3s" repeatCount="2" restart="always" begin="indefinite" />
	<polyline fill="#C4C4C0" points="267.174,79.383 307.071,79.383 307.071,87.033 267.174,87.033 	"/>
	<line fill="none" stroke="#C4C4C0" stroke-width="2.7" stroke-miterlimit="10" x1="269.907" y1="82.598" x2="269.907" y2="99.89"/>
	<line fill="none" stroke="#C4C4C0" stroke-width="2.7" stroke-miterlimit="10" x1="274.19" y1="82.598" x2="274.19" y2="99.89"/>
	<line fill="none" stroke="#C4C4C0" stroke-width="2.7" stroke-miterlimit="10" x1="278.461" y1="82.598" x2="278.461" y2="99.89"/>
	
		<line fill="none" stroke="#C4C4C0" stroke-width="2.7" stroke-miterlimit="10" x1="282.443" y1="82.602" x2="282.443" y2="99.896"/>
	
		<line fill="none" stroke="#C4C4C0" stroke-width="2.7" stroke-miterlimit="10" x1="286.721" y1="82.602" x2="286.721" y2="99.896"/>
	
		<line fill="none" stroke="#C4C4C0" stroke-width="2.7" stroke-miterlimit="10" x1="290.993" y1="82.602" x2="290.993" y2="99.896"/>
	
		<line fill="none" stroke="#C4C4C0" stroke-width="2.7" stroke-miterlimit="10" x1="295.486" y1="82.602" x2="295.486" y2="99.896"/>
	
		<line fill="none" stroke="#C4C4C0" stroke-width="2.7" stroke-miterlimit="10" x1="299.768" y1="82.602" x2="299.768" y2="99.896"/>
	<line fill="none" stroke="#C4C4C0" stroke-width="2.7" stroke-miterlimit="10" x1="304.04" y1="82.602" x2="304.04" y2="99.896"/>
	<polygon id="FwdprobeBstar" fill="#A23D96" points="307.073,67.311 311.801,64.826 310.899,70.088 314.725,73.822 309.436,74.592 
		307.073,79.383 304.708,74.592 299.418,73.822 303.245,70.088 302.342,64.826 	"/>
	<text transform="matrix(1 0 0 1 310.0688 87.0371)" fill="#010101" font-family="'Helvetica'" font-size="10">5’</text>
	<text id="FwdprobeBbase" transform="matrix(1 0 0 1 275.4243 85.585)" fill="#010101" font-family="'Helvetica'" font-size="8">K</text>
</g>
<g id="FwdprobeC">
<animateMotion id="FwdprobeCanimate" path="M 0 0 V -15 Z" dur="0.3s" repeatCount="2" restart="always" begin="indefinite" />

	<polyline fill="#C4C4C0" points="328.26,50.557 368.157,50.557 368.157,58.205 328.26,58.205 	"/>
	
		<line fill="none" stroke="#C4C4C0" stroke-width="2.7" stroke-miterlimit="10" x1="330.995" y1="53.771" x2="330.995" y2="71.062"/>
	
		<line fill="none" stroke="#C4C4C0" stroke-width="2.7" stroke-miterlimit="10" x1="335.274" y1="53.771" x2="335.274" y2="71.062"/>
	
		<line fill="none" stroke="#C4C4C0" stroke-width="2.7" stroke-miterlimit="10" x1="339.545" y1="53.771" x2="339.545" y2="71.062"/>
	
		<line fill="none" stroke="#C4C4C0" stroke-width="2.7" stroke-miterlimit="10" x1="343.528" y1="53.775" x2="343.528" y2="71.068"/>
	
		<line fill="none" stroke="#C4C4C0" stroke-width="2.7" stroke-miterlimit="10" x1="347.807" y1="53.775" x2="347.807" y2="71.068"/>
	
		<line fill="none" stroke="#C4C4C0" stroke-width="2.7" stroke-miterlimit="10" x1="352.079" y1="53.775" x2="352.079" y2="71.068"/>
	
		<line fill="none" stroke="#C4C4C0" stroke-width="2.7" stroke-miterlimit="10" x1="356.571" y1="53.775" x2="356.571" y2="71.068"/>
	
		<line fill="none" stroke="#C4C4C0" stroke-width="2.7" stroke-miterlimit="10" x1="360.854" y1="53.775" x2="360.854" y2="71.068"/>
	
		<line fill="none" stroke="#C4C4C0" stroke-width="2.7" stroke-miterlimit="10" x1="365.125" y1="53.775" x2="365.125" y2="71.068"/>
	<text id="FwdprobeCbase" transform="matrix(1 0 0 1 336.9751 57.1074)" fill="#010101" font-family="'Helvetica'" font-size="8">C</text>
	<polygon id="FwdprobeCstar" opacity="0" fill="#A23D96" points="368.158,38.484 372.886,35.999 371.984,41.261 375.81,44.995 
		370.521,45.765 368.158,50.556 365.792,45.765 360.503,44.995 364.33,41.261 363.427,35.999 	"/>
</g>
<g id="RevprobeD">
<animateMotion id="RevprobeDanimate" path="M 0 0 V -15 Z" dur="0.3s" repeatCount="2" restart="always" begin="indefinite" />

	<polyline fill="#C4C4C0" points="166.642,77.934 126.745,77.934 126.745,85.582 166.642,85.582 	"/>
	
		<line fill="none" stroke="#C4C4C0" stroke-width="2.7" stroke-miterlimit="10" x1="163.908" y1="81.146" x2="163.908" y2="98.438"/>
	
		<line fill="none" stroke="#C4C4C0" stroke-width="2.7" stroke-miterlimit="10" x1="159.627" y1="81.146" x2="159.627" y2="98.438"/>
	
		<line fill="none" stroke="#C4C4C0" stroke-width="2.7" stroke-miterlimit="10" x1="155.355" y1="81.146" x2="155.355" y2="98.438"/>
	<line fill="none" stroke="#C4C4C0" stroke-width="2.7" stroke-miterlimit="10" x1="151.373" y1="81.15" x2="151.373" y2="98.442"/>
	<line fill="none" stroke="#C4C4C0" stroke-width="2.7" stroke-miterlimit="10" x1="147.095" y1="81.15" x2="147.095" y2="98.442"/>
	<line fill="none" stroke="#C4C4C0" stroke-width="2.7" stroke-miterlimit="10" x1="142.823" y1="81.15" x2="142.823" y2="98.442"/>
	<line fill="none" stroke="#C4C4C0" stroke-width="2.7" stroke-miterlimit="10" x1="138.33" y1="81.15" x2="138.33" y2="98.442"/>
	<line fill="none" stroke="#C4C4C0" stroke-width="2.7" stroke-miterlimit="10" x1="134.049" y1="81.15" x2="134.049" y2="98.442"/>
	<line fill="none" stroke="#C4C4C0" stroke-width="2.7" stroke-miterlimit="10" x1="129.777" y1="81.15" x2="129.777" y2="98.442"/>
	<polygon id="RevprobeDstar" fill="#00B2B2" points="126.745,65.859 122.011,63.377 122.916,68.639 119.09,72.373 124.381,73.141 
		126.745,77.934 129.109,73.141 134.4,72.373 130.571,68.639 131.477,63.377 	"/>
	<g>
		<path fill="#FCFDFA" d="M174.49,72.467c0,3.52-2.856,6.375-6.381,6.375c-3.519,0-6.375-2.855-6.375-6.375
			c0-3.521,2.856-6.379,6.375-6.379C171.634,66.088,174.49,68.945,174.49,72.467"/>
	</g>
	<text transform="matrix(1 0 0 1 114.9629 85.5918)" fill="#010101" font-family="'Helvetica'" font-size="10">3’</text>
	<text id="RevprobeDbase" transform="matrix(1 0 0 1 153.583 84.3652)" fill="#010101" font-family="'Helvetica'" font-size="8">R</text>
	<text transform="matrix(1 0 0 1 165.7334 74.9561)" fill="#00B2B2" font-family="'Helvetica'" font-size="10.4805">p</text>
	
		<text id="RevprobeDInvdT" transform="matrix(1 0 0 1 105.666 74.46)" opacity="0" fill="#010101" enable-background="new    " font-family="'Helvetica'" font-size="10">3’InvT</text>
</g>
<g id="RevprobeE">
<animateMotion id="RevprobeEanimate" path="M 0 0 V -15 Z" dur="0.3s" repeatCount="2" restart="always" begin="indefinite" />

	<g>
		<polyline fill="#C4C4C0" points="156.137,32.416 116.242,32.416 116.242,40.064 156.137,40.064 		"/>
		
			<line fill="none" stroke="#C4C4C0" stroke-width="2.7" stroke-miterlimit="10" x1="153.404" y1="35.631" x2="153.404" y2="52.922"/>
		
			<line fill="none" stroke="#C4C4C0" stroke-width="2.7" stroke-miterlimit="10" x1="149.122" y1="35.631" x2="149.122" y2="52.922"/>
		
			<line fill="none" stroke="#C4C4C0" stroke-width="2.7" stroke-miterlimit="10" x1="144.851" y1="35.631" x2="144.851" y2="52.922"/>
		
			<line fill="none" stroke="#C4C4C0" stroke-width="2.7" stroke-miterlimit="10" x1="140.869" y1="35.635" x2="140.869" y2="52.928"/>
		<line fill="none" stroke="#C4C4C0" stroke-width="2.7" stroke-miterlimit="10" x1="136.59" y1="35.635" x2="136.59" y2="52.928"/>
		
			<line fill="none" stroke="#C4C4C0" stroke-width="2.7" stroke-miterlimit="10" x1="132.318" y1="35.635" x2="132.318" y2="52.928"/>
		
			<line fill="none" stroke="#C4C4C0" stroke-width="2.7" stroke-miterlimit="10" x1="127.826" y1="35.635" x2="127.826" y2="52.928"/>
		
			<line fill="none" stroke="#C4C4C0" stroke-width="2.7" stroke-miterlimit="10" x1="123.543" y1="35.635" x2="123.543" y2="52.928"/>
		
			<line fill="none" stroke="#C4C4C0" stroke-width="2.7" stroke-miterlimit="10" x1="119.271" y1="35.635" x2="119.271" y2="52.928"/>
		<polygon id="RevprobeEstar" fill="#B61F24" points="116.239,20.344 111.508,17.859 112.412,23.123 108.587,26.855 113.875,27.625 
			116.239,32.416 118.606,27.625 123.892,26.855 120.066,23.123 120.971,17.859 		"/>
		<path fill="#FCFDFA" d="M165.367,26.793c0,3.521-2.856,6.377-6.381,6.377c-3.519,0-6.375-2.855-6.375-6.377
			c0-3.52,2.856-6.375,6.375-6.375C162.511,20.418,165.367,23.273,165.367,26.793"/>
	</g>
	<text transform="matrix(1 0 0 1 156.6104 29.2852)" fill="#B61F24" font-family="'Helvetica'" font-size="10.4805">p</text>
	<text id="RevprobeEbase" transform="matrix(1 0 0 1 142.1172 38.9004)" fill="#010101" font-family="'Helvetica'" font-size="8">K</text>
	
		<text id="RevprobeEInvdT" transform="matrix(1 0 0 1 92.019 29.2852)" opacity="0" fill="#010101" enable-background="new    " font-family="'Helvetica'" font-size="10">3’InvT</text>
</g>
<g id="RevprobeF">
<animateMotion id="RevprobeFanimate" path="M 0 0 V -15 Z" dur="0.3s" repeatCount="2" restart="always" begin="indefinite" />

	<g>
		<polyline fill="#C4C4C0" points="103.297,50.557 63.402,50.557 63.402,58.205 103.297,58.205 		"/>
		
			<line fill="none" stroke="#C4C4C0" stroke-width="2.7" stroke-miterlimit="10" x1="100.564" y1="53.771" x2="100.564" y2="71.062"/>
		<line fill="none" stroke="#C4C4C0" stroke-width="2.7" stroke-miterlimit="10" x1="96.282" y1="53.771" x2="96.282" y2="71.062"/>
		<line fill="none" stroke="#C4C4C0" stroke-width="2.7" stroke-miterlimit="10" x1="92.011" y1="53.771" x2="92.011" y2="71.062"/>
		<line fill="none" stroke="#C4C4C0" stroke-width="2.7" stroke-miterlimit="10" x1="88.029" y1="53.775" x2="88.029" y2="71.068"/>
		<line fill="none" stroke="#C4C4C0" stroke-width="2.7" stroke-miterlimit="10" x1="83.75" y1="53.775" x2="83.75" y2="71.068"/>
		<line fill="none" stroke="#C4C4C0" stroke-width="2.7" stroke-miterlimit="10" x1="79.479" y1="53.775" x2="79.479" y2="71.068"/>
		<line fill="none" stroke="#C4C4C0" stroke-width="2.7" stroke-miterlimit="10" x1="74.986" y1="53.775" x2="74.986" y2="71.068"/>
		<line fill="none" stroke="#C4C4C0" stroke-width="2.7" stroke-miterlimit="10" x1="70.703" y1="53.775" x2="70.703" y2="71.068"/>
		<line fill="none" stroke="#C4C4C0" stroke-width="2.7" stroke-miterlimit="10" x1="66.432" y1="53.775" x2="66.432" y2="71.068"/>
	</g>
	<g>
		<path fill="#FCFDFA" d="M112.331,48.402c0,3.521-2.856,6.377-6.381,6.377c-3.521,0-6.378-2.855-6.378-6.377
			s2.856-6.375,6.378-6.375C109.475,42.027,112.331,44.881,112.331,48.402"/>
	</g>
	<text id="RevprobeFInvdT" transform="matrix(1 0 0 1 35.6855 49.8867)" fill="#010101" font-family="'Helvetica'" font-size="10">3’InvT</text>
	
		<text id="RevprobeFbase" transform="matrix(1 0 0 1 88.0244 57.1074)" fill="#010101" font-family="'Helvetica'" font-size="7.875">C</text>
	<text transform="matrix(1 0 0 1 103.5723 50.8965)" fill="#010101" font-family="'Helvetica'" font-size="10.4805">p</text>
	<polygon id="RevprobeFstar" opacity="0" fill="#B61F24" points="63.401,38.484 58.671,35.999 59.575,41.263 55.749,44.995 
		61.038,45.765 63.401,50.556 65.769,45.765 71.055,44.995 67.229,41.263 68.134,35.999 	"/>
</g>
<g id="RevprobeI" opacity="0">
	<polyline fill="#C4C4C0" points="18.669,61.851 -21.228,61.851 -21.228,69.499 18.669,69.499 	"/>
	<line fill="none" stroke="#C4C4C0" stroke-width="2.7" stroke-miterlimit="10" x1="15.936" y1="65.062" x2="15.936" y2="82.355"/>
	<line fill="none" stroke="#C4C4C0" stroke-width="2.7" stroke-miterlimit="10" x1="11.654" y1="65.062" x2="11.654" y2="82.355"/>
	<line fill="none" stroke="#C4C4C0" stroke-width="2.7" stroke-miterlimit="10" x1="7.382" y1="65.062" x2="7.382" y2="82.355"/>
	<line fill="none" stroke="#C4C4C0" stroke-width="2.7" stroke-miterlimit="10" x1="3.4" y1="65.066" x2="3.4" y2="82.359"/>
	<line fill="none" stroke="#C4C4C0" stroke-width="2.7" stroke-miterlimit="10" x1="-0.877" y1="65.066" x2="-0.877" y2="82.359"/>
	<line fill="none" stroke="#C4C4C0" stroke-width="2.7" stroke-miterlimit="10" x1="-5.149" y1="65.066" x2="-5.149" y2="82.359"/>
	<line fill="none" stroke="#C4C4C0" stroke-width="2.7" stroke-miterlimit="10" x1="-9.643" y1="65.066" x2="-9.643" y2="82.359"/>
	
		<line fill="none" stroke="#C4C4C0" stroke-width="2.7" stroke-miterlimit="10" x1="-13.924" y1="65.066" x2="-13.924" y2="82.359"/>
	
		<line fill="none" stroke="#C4C4C0" stroke-width="2.7" stroke-miterlimit="10" x1="-18.196" y1="65.066" x2="-18.196" y2="82.359"/>
	<polygon fill="#A23D96" points="-21.228,49.775 -25.961,47.293 -25.057,52.556 -28.883,56.29 -23.592,57.058 -21.228,61.851 
		-18.864,57.058 -13.573,56.29 -17.402,52.556 -16.496,47.293 	"/>
	<g>
		<path fill="#FCFDFA" d="M26.518,56.383c0,3.52-2.856,6.375-6.381,6.375c-3.519,0-6.375-2.855-6.375-6.375
			c0-3.521,2.856-6.379,6.375-6.379C23.661,50.004,26.518,52.861,26.518,56.383"/>
	</g>
	<text transform="matrix(1 0 0 1 5.6104 68.2817)" fill="#010101" font-family="'Helvetica'" font-size="8">N</text>
	<text transform="matrix(1 0 0 1 17.7607 58.8726)" fill="#A23D96" font-family="'Helvetica'" font-size="10.4805">p</text>
</g>
<g id="RevprobeJ" opacity="0">
	<polyline fill="#C4C4C0" points="31.506,26.31 -8.391,26.31 -8.391,33.958 31.506,33.958 	"/>
	<line fill="none" stroke="#C4C4C0" stroke-width="2.7" stroke-miterlimit="10" x1="28.772" y1="29.521" x2="28.772" y2="46.814"/>
	<line fill="none" stroke="#C4C4C0" stroke-width="2.7" stroke-miterlimit="10" x1="24.491" y1="29.521" x2="24.491" y2="46.814"/>
	<line fill="none" stroke="#C4C4C0" stroke-width="2.7" stroke-miterlimit="10" x1="20.219" y1="29.521" x2="20.219" y2="46.814"/>
	<line fill="none" stroke="#C4C4C0" stroke-width="2.7" stroke-miterlimit="10" x1="16.237" y1="29.525" x2="16.237" y2="46.818"/>
	<line fill="none" stroke="#C4C4C0" stroke-width="2.7" stroke-miterlimit="10" x1="11.959" y1="29.525" x2="11.959" y2="46.818"/>
	<line fill="none" stroke="#C4C4C0" stroke-width="2.7" stroke-miterlimit="10" x1="7.688" y1="29.525" x2="7.688" y2="46.818"/>
	<line fill="none" stroke="#C4C4C0" stroke-width="2.7" stroke-miterlimit="10" x1="3.194" y1="29.525" x2="3.194" y2="46.818"/>
	<line fill="none" stroke="#C4C4C0" stroke-width="2.7" stroke-miterlimit="10" x1="-1.087" y1="29.525" x2="-1.087" y2="46.818"/>
	<line fill="none" stroke="#C4C4C0" stroke-width="2.7" stroke-miterlimit="10" x1="-5.359" y1="29.525" x2="-5.359" y2="46.818"/>
	<polygon fill="#20B24B" points="-8.391,14.234 -13.125,11.752 -12.22,17.015 -16.046,20.749 -10.755,21.517 -8.391,26.31 
		-6.027,21.517 -0.736,20.749 -4.565,17.015 -3.659,11.752 	"/>
	<g>
		<path fill="#FCFDFA" d="M39.354,20.842c0,3.52-2.856,6.375-6.381,6.375c-3.519,0-6.375-2.855-6.375-6.375
			c0-3.521,2.856-6.379,6.375-6.379C36.498,14.463,39.354,17.32,39.354,20.842"/>
	</g>
	<text transform="matrix(1 0 0 1 18.4473 32.7407)" fill="#010101" font-family="'Helvetica'" font-size="8">N</text>
	<text transform="matrix(1 0 0 1 30.5977 23.3315)" fill="#20B24B" font-family="'Helvetica'" font-size="10.4805">p</text>
</g>
</svg>
